HIERARCHY
ROOT Hips
{
	OFFSET 0.000000 0.000000 0.000000
	CHANNELS 6 Xposition Yposition Zposition Yrotation Xrotation Zrotation
	JOINT Chest
	{
		OFFSET 0.000000 -0.009281 11.569106
		CHANNELS 3 Yrotation Xrotation Zrotation
		JOINT Chest2
		{
			OFFSET -0.000000 0.016865 9.269641
			CHANNELS 3 Yrotation Xrotation Zrotation
			JOINT Chest3
			{
				OFFSET -0.000000 0.000001 8.374491
				CHANNELS 3 Yrotation Xrotation Zrotation
				JOINT Chest4
				{
					OFFSET -0.000000 0.000001 8.374493
					CHANNELS 3 Yrotation Xrotation Zrotation
					JOINT Neck
					{
						OFFSET -0.000000 0.000002 12.152554
						CHANNELS 3 Yrotation Xrotation Zrotation
						JOINT Head
						{
							OFFSET -0.000000 0.040101 7.802319
							CHANNELS 3 Yrotation Xrotation Zrotation
							End Site
							{
								OFFSET -0.000000 0.020947 14.853096
							}
						}
					}
					JOINT RightCollar
					{
						OFFSET 2.894404 0.000001 6.791374
						CHANNELS 3 Yrotation Xrotation Zrotation
						JOINT RightShoulder
						{
							OFFSET 13.574684 0.000001 0.000000
							CHANNELS 3 Yrotation Xrotation Zrotation
							JOINT RightElbow
							{
								OFFSET 23.923903 0.000002 0.000000
								CHANNELS 3 Yrotation Xrotation Zrotation
								JOINT RightWrist
								{
									OFFSET 19.846718 0.012767 0.000000
									CHANNELS 3 Yrotation Xrotation Zrotation
									End Site
									{
										OFFSET 14.973145 0.000001 0.000000
									}
								}
							}
						}
					}
					JOINT LeftCollar
					{
						OFFSET -2.894404 0.000001 6.791374
						CHANNELS 3 Yrotation Xrotation Zrotation
						JOINT LeftShoulder
						{
							OFFSET -13.574684 -0.000001 0.000000
							CHANNELS 3 Yrotation Xrotation Zrotation
							JOINT LeftElbow
							{
								OFFSET -23.923903 -0.000002 0.000000
								CHANNELS 3 Yrotation Xrotation Zrotation
								JOINT LeftWrist
								{
									OFFSET -19.846718 0.012763 0.000000
									CHANNELS 3 Yrotation Xrotation Zrotation
									End Site
									{
										OFFSET -14.973145 -0.000001 0.000000
									}
								}
							}
						}
					}
				}
			}
		}
	}
	JOINT RightHip
	{
		OFFSET 9.469263 0.004643 0.045487
		CHANNELS 3 Yrotation Xrotation Zrotation
		JOINT RightKnee
		{
			OFFSET 0.000000 0.002661 -40.478676
			CHANNELS 3 Yrotation Xrotation Zrotation
			JOINT RightAnkle
			{
				OFFSET 0.000000 0.049106 -35.224068
				CHANNELS 3 Yrotation Xrotation Zrotation
				JOINT RightToe
				{
					OFFSET -0.000001 12.539529 -6.151390
					CHANNELS 3 Yrotation Xrotation Zrotation
					End Site
					{
						OFFSET -0.000001 5.044994 -1.291870
					}
				}
			}
		}
	}
	JOINT LeftHip
	{
		OFFSET -9.469263 0.004641 0.045487
		CHANNELS 3 Yrotation Xrotation Zrotation
		JOINT LeftKnee
		{
			OFFSET 0.000000 0.002661 -40.478676
			CHANNELS 3 Yrotation Xrotation Zrotation
			JOINT LeftAnkle
			{
				OFFSET 0.000000 0.049106 -35.224068
				CHANNELS 3 Yrotation Xrotation Zrotation
				JOINT LeftToe
				{
					OFFSET -0.000001 12.539529 -6.151390
					CHANNELS 3 Yrotation Xrotation Zrotation
					End Site
					{
						OFFSET -0.000001 5.044994 -1.291870
					}
				}
			}
		}
	}
}
MOTION
Frames: 16
Frame Time: 0.016667
0.281896 13.532779 83.150177 -2.766289 -0.417616 -115.989139 -1.832622 -5.983766 1.561532 -0.740663 -2.544625 0.448450 -0.740663 -2.544626 0.448451 -0.553537 -1.909016 0.333200 0.709321 -14.939883 -0.715718 1.057157 8.442056 -1.071569 10.021391 7.948544 1.224345 42.519721 -14.398411 -17.903563 -45.711543 -63.123618 109.714865 -63.685326 37.661929 34.673548 -8.207806 4.615911 -5.569622 -40.532197 -14.585430 20.776541 18.713590 -61.735799 -79.730820 37.348991 26.996944 -67.760599 3.001278 -4.540914 -12.139892 1.878620 0.430303 -3.203506 0.447909 3.571178 2.999528 -0.175064 0.005474 0.139229 -2.958687 -4.691337 13.335068 -2.587035 -0.893626 8.905434 3.357823 1.980245 7.487532 -0.117757 -0.230911 -0.014555 
0.255123 13.374081 83.149384 -2.769397 -0.364781 -115.898379 -1.866180 -5.977945 1.564256 -0.757961 -2.541460 0.450857 -0.757961 -2.541460 0.450859 -0.566502 -1.906658 0.334935 0.726841 -14.884246 -0.748901 1.077199 8.545478 -1.126961 10.031571 7.962958 1.209517 42.484104 -14.457622 -17.775280 -45.667253 -63.202001 109.672033 -63.719006 37.684763 34.658005 -8.211550 4.638250 -5.574722 -40.481725 -14.579764 20.726158 18.601571 -61.769506 -79.682606 37.359222 27.043065 -67.774799 3.061111 -4.557196 -12.081010 1.909590 0.421857 -3.185109 0.328576 3.671827 2.863947 -0.132908 -0.021915 0.139281 -2.929235 -4.705313 13.126153 -2.513055 -0.861650 9.003538 3.293208 1.952423 7.498247 -0.160812 -0.263401 -0.031450 
0.229023 13.207039 83.150200 -2.788612 -0.316324 -115.777608 -1.896570 -5.964991 1.547220 -0.778189 -2.539209 0.447280 -0.778189 -2.539208 0.447277 -0.581687 -1.904981 0.332173 0.762520 -14.842944 -0.776619 1.133401 8.622340 -1.165213 10.031946 7.993705 1.188441 42.493926 -14.538631 -17.649643 -45.623621 -63.295718 109.592878 -63.763094 37.708720 34.630582 -8.216985 4.663973 -5.574995 -40.442602 -14.629586 20.689037 18.415218 -61.773720 -79.564969 37.365434 27.114618 -67.823983 3.119391 -4.585504 -12.104921 1.946869 0.389740 -3.112587 0.196528 3.773917 2.747060 -0.093437 -0.031060 0.140417 -2.888834 -4.730832 13.095836 -2.435611 -0.851016 8.992958 3.201802 1.926873 7.360597 -0.185612 -0.280557 -0.036049 
0.197118 13.026441 83.149681 -2.807567 -0.268660 -115.626346 -1.926158 -5.939766 1.514298 -0.798031 -2.534251 0.437682 -0.798030 -2.534249 0.437686 -0.596609 -1.901263 0.324902 0.807517 -14.818054 -0.798488 1.209361 8.668734 -1.188970 10.027241 8.019836 1.170962 42.527777 -14.630269 -17.540894 -45.523771 -63.378063 109.452866 -63.781331 37.709765 34.614115 -8.229620 4.691490 -5.580903 -40.412068 -14.698844 20.688435 18.328036 -61.743544 -79.529924 37.371080 27.190331 -67.863988 3.194175 -4.607626 -12.254949 1.988168 0.344160 -3.052878 0.053810 3.879068 2.689236 -0.062032 -0.030357 0.139333 -2.810040 -4.737582 13.133299 -2.393429 -0.891689 8.892173 3.097885 1.924668 7.216719 -0.191316 -0.292035 -0.025339 
0.148034 12.827479 83.146439 -2.777770 -0.219855 -115.482694 -1.948543 -5.870182 1.508310 -0.817159 -2.524970 0.426009 -0.817159 -2.524970 0.426011 -0.611009 -1.894302 0.316078 0.859193 -14.811373 -0.821654 1.297413 8.681328 -1.212634 10.033689 8.037154 1.151297 42.557925 -14.706584 -17.450534 -45.407098 -63.448380 109.307984 -63.772390 37.686375 34.607841 -8.230315 4.696820 -5.584823 -40.366483 -14.738348 20.684601 18.353316 -61.724324 -79.597139 37.377688 27.261267 -67.883529 3.309115 -4.575537 -12.486568 2.029562 0.297159 -3.028285 -0.105869 3.961601 2.741033 -0.032928 -0.012351 0.161220 -2.679745 -4.666214 13.121064 -2.376394 -0.994874 8.805249 2.978602 1.958412 7.201712 -0.182557 -0.312062 -0.001689 
0.054075 12.619263 83.140503 -2.570669 -0.156308 -115.446986 -1.923780 -5.635655 1.622065 -0.833778 -2.512742 0.414083 -0.833778 -2.512742 0.414082 -0.623529 -1.885124 0.307081 0.911775 -14.819130 -0.847925 1.386007 8.667117 -1.241839 10.030803 8.053911 1.118007 42.578419 -14.762120 -17.360352 -45.304816 -63.525486 109.196208 -63.745022 37.648310 34.609228 -8.232926 4.711492 -5.581781 -40.289968 -14.755017 20.672534 18.373626 -61.757553 -79.670188 37.396310 27.313430 -67.892818 3.513385 -4.334882 -12.600825 2.109155 0.266554 -2.975344 -0.422349 3.946675 2.606247 0.056537 0.054699 0.302487 -2.465190 -4.376429 13.048720 -2.343544 -1.177731 8.803006 2.832502 2.050812 7.179748 -0.179586 -0.366809 0.009199 
-0.023292 12.390059 83.136421 -2.518245 -0.103684 -115.252844 -1.939095 -5.547234 1.600022 -0.846937 -2.500204 0.402134 -0.846938 -2.500205 0.402138 -0.633456 -1.875716 0.298085 0.962428 -14.837488 -0.880045 1.468779 8.633250 -1.282806 10.023378 8.083849 1.091590 42.587961 -14.796077 -17.287783 -45.222010 -63.624196 109.113201 -63.705939 37.605082 34.620252 -8.242624 4.736828 -5.574710 -40.200984 -14.765609 20.659126 18.345733 -61.825855 -79.708342 37.422613 27.346206 -67.889929 3.630155 -4.301953 -12.803742 2.249240 0.269626 -2.899877 -0.713432 3.983247 2.515859 0.104933 0.092442 0.326265 -2.304372 -4.183422 12.656215 -2.255396 -1.441400 8.860280 2.639297 2.135629 7.236404 -0.174183 -0.386722 0.022954 
-0.160828 12.158131 83.131248 -2.275197 0.018118 -114.923288 -1.920175 -5.263883 1.452035 -0.857734 -2.487948 0.391437 -0.857735 -2.487949 0.391434 -0.641606 -1.866516 0.290037 1.009320 -14.855911 -0.918824 1.541950 8.599281 -1.337709 10.008557 8.111101 1.064578 42.597537 -14.825977 -17.208655 -45.131981 -63.729674 109.028008 -63.668612 37.565217 34.635456 -8.249887 4.761842 -5.561290 -40.120849 -14.781798 20.647973 18.290417 -61.888870 -79.732111 37.442376 27.356388 -67.891875 3.784472 -4.045406 -13.017037 2.435552 0.290399 -2.877706 -1.124930 3.972758 2.334526 0.191681 0.147455 0.380473 -2.086996 -3.673383 12.025566 -2.163704 -1.814088 8.931400 2.447337 2.201860 7.453245 -0.178408 -0.402627 0.016304 
-0.273790 11.915434 83.129189 -2.251990 0.076183 -114.710309 -1.940180 -5.206938 1.447062 -0.868376 -2.476908 0.382030 -0.868376 -2.476908 0.382031 -0.649631 -1.858229 0.282957 1.050741 -14.862401 -0.965850 1.601686 8.587512 -1.410112 9.996177 8.136690 1.041358 42.607355 -14.879985 -17.140887 -45.024569 -63.814048 108.924667 -63.641353 37.535004 34.652729 -8.269021 4.796801 -5.549507 -40.050406 -14.799032 20.657422 18.300508 -61.932761 -79.811389 37.449702 27.361531 -67.907189 3.900598 -3.993268 -13.043187 2.580581 0.259764 -2.999613 -1.499069 3.987730 2.249572 0.259530 0.195703 0.390062 -1.918671 -3.406287 11.567900 -2.055529 -2.244852 8.961753 2.220385 2.329473 7.579989 -0.181176 -0.402350 0.012684 
-0.401282 11.692624 83.129196 -2.231056 0.157107 -114.473854 -1.980798 -5.157904 1.434187 -0.880011 -2.463218 0.376627 -0.880010 -2.463217 0.376629 -0.658387 -1.847960 0.278882 1.091886 -14.852055 -1.021380 1.657617 8.607071 -1.498480 10.000646 8.138258 1.013159 42.615801 -14.960817 -17.072831 -44.903907 -63.860691 108.801519 -63.623260 37.523290 34.665034 -8.290474 4.824686 -5.541028 -39.977241 -14.805876 20.671607 18.389219 -61.954228 -79.951244 37.447137 27.374997 -67.931211 3.976047 -3.870235 -13.026012 2.705285 0.126325 -3.151318 -1.837488 4.043488 2.170954 0.302980 0.233987 0.364449 -1.758489 -3.093904 11.208829 -1.977461 -2.724651 8.937809 2.010274 2.440947 7.565440 -0.181639 -0.375097 0.009646 
-0.548649 11.496693 83.132607 -2.218084 0.258805 -114.234012 -2.039352 -5.114230 1.427409 -0.891308 -2.452413 0.374153 -0.891308 -2.452413 0.374152 -0.666877 -1.839862 0.276994 1.128738 -14.822194 -1.083653 1.702847 8.662886 -1.601051 10.015853 8.137535 1.002413 42.628160 -15.054203 -17.029069 -44.815702 -63.876605 108.700555 -63.637569 37.533754 34.661144 -8.318469 4.838592 -5.526249 -39.898772 -14.789482 20.674947 18.502332 -61.973523 -80.103939 37.434378 27.383430 -67.966905 3.989013 -3.674804 -12.951343 2.844266 -0.120825 -3.236651 -2.150448 4.139348 2.011206 0.314032 0.259881 0.311297 -1.603872 -2.729113 10.911237 -1.958737 -3.263875 8.930391 1.821217 2.524690 7.554212 -0.166461 -0.312993 0.011710 
-0.708969 11.340594 83.144760 -2.250182 0.385876 -113.984048 -2.134875 -5.100970 1.421270 -0.903869 -2.451908 0.375836 -0.903869 -2.451907 0.375839 -0.676290 -1.839492 0.278206 1.166535 -14.772238 -1.152823 1.747095 8.756057 -1.716109 10.031115 8.131455 0.987742 42.651403 -15.135498 -16.991195 -44.769359 -63.884556 108.625703 -63.672601 37.562178 34.652876 -8.336925 4.858617 -5.501776 -39.830296 -14.770649 20.668197 18.606637 -61.988359 -80.244908 37.419041 27.380598 -68.011185 3.920766 -3.459604 -12.866016 3.003641 -0.436456 -3.320330 -2.439833 4.259986 1.817233 0.303927 0.269195 0.249665 -1.472663 -2.339893 10.610758 -1.977448 -3.875694 9.020202 1.609673 2.524063 7.386379 -0.131459 -0.178500 0.014060 
-0.874975 11.223390 83.169884 -2.344065 0.527739 -113.697467 -2.265313 -5.144417 1.399442 -0.917531 -2.465306 0.379966 -0.917531 -2.465305 0.379968 -0.686508 -1.849554 0.281230 1.207379 -14.702802 -1.230521 1.793634 8.885450 -1.845953 10.046257 8.138187 0.976022 42.689840 -15.197007 -16.976483 -44.731104 -63.876940 108.552278 -63.713207 37.583550 34.653740 -8.334516 4.857739 -5.483675 -39.769094 -14.738382 20.631406 18.689235 -61.984322 -80.373643 37.407587 27.365453 -68.059700 3.797919 -3.296165 -12.821775 3.164581 -0.727771 -3.417622 -2.729922 4.369504 1.623060 0.307236 0.262309 0.211940 -1.367639 -1.937472 10.258334 -2.007815 -4.596133 9.204546 1.343994 2.455543 6.980029 -0.072135 0.006961 0.012487 
-1.031628 11.135321 83.201080 -2.482895 0.622851 -113.353580 -2.370992 -5.251526 1.342886 -0.928070 -2.487302 0.383345 -0.928070 -2.487302 0.383347 -0.694382 -1.866064 0.283688 1.245836 -14.624359 -1.312944 1.833726 9.031566 -1.985589 10.043216 8.120919 0.965701 42.753863 -15.232850 -16.970390 -44.670421 -63.837694 108.453644 -63.740077 37.581982 34.660775 -8.318180 4.833191 -5.481334 -39.717256 -14.700391 20.595609 18.798033 -61.947405 -80.537493 37.414905 27.331560 -68.095005 3.687454 -3.220811 -12.909989 3.330026 -0.967357 -3.457887 -3.014817 4.449221 1.434766 0.316382 0.255314 0.179848 -1.216177 -1.487671 9.915103 -2.030682 -5.542009 9.372457 0.947348 2.502076 6.396531 0.061406 0.148625 0.009611 
-1.185759 11.058722 83.227455 -2.627763 0.620349 -112.979136 -2.399863 -5.395644 1.272769 -0.933080 -2.520604 0.388560 -0.933079 -2.520602 0.388561 -0.698094 -1.891052 0.287522 1.283717 -14.543418 -1.400596 1.870564 9.182327 -2.135341 10.047617 8.116994 0.952999 42.810427 -15.264286 -16.985378 -44.580525 -63.775157 108.343063 -63.737351 37.554419 34.683332 -8.285178 4.799096 -5.482539 -39.673598 -14.666585 20.551085 18.926919 -61.878461 -80.724121 37.433992 27.276171 -68.117921 3.661384 -3.192485 -13.031390 3.481214 -1.200267 -3.510632 -3.285463 4.502245 1.267024 0.325586 0.269350 0.144329 -0.983264 -0.979571 9.633116 -2.000514 -6.705179 9.503747 0.544047 2.668248 5.667478 0.142354 0.256320 0.008240 
-1.339952 11.010789 83.198074 -2.838368 0.600951 -112.577534 -2.447233 -5.594881 1.172312 -0.931079 -2.564845 0.397457 -0.931079 -2.564846 0.397451 -0.696524 -1.924245 0.294130 1.316550 -14.465434 -1.488239 1.897794 9.327551 -2.287116 10.061265 8.124422 0.946684 42.834387 -15.292321 -16.999974 -44.489199 -63.700967 108.266298 -63.735241 37.521303 34.707606 -8.261560 4.801048 -5.481102 -39.638695 -14.661343 20.519944 19.073551 -61.789115 -80.906910 37.465029 27.220150 -68.128275 3.625054 -3.195917 -13.101747 3.601785 -1.468956 -3.673532 -3.540788 4.505647 1.102223 0.342578 0.339321 0.121909 -0.840410 -0.491437 9.429132 -1.893193 -8.056109 9.481607 0.978570 2.931171 5.467391 -0.474665 0.330842 -0.014958 
